<svg width="172" height="52" viewBox="0 0 172 52" fill="none" xmlns="http://www.w3.org/2000/svg">
<g clip-path="url(#clip0_6_24)">
<path d="M16.4452 20C11.8248 20 0.445312 31.3792 0.445312 35.9999C0.445312 40.6206 11.8248 52 16.4452 52C21.0656 52 32.4453 40.6204 32.4453 35.9999C32.4453 31.3794 21.0658 20 16.4452 20ZM13.9519 45.1492C12.0035 44.6183 6.76512 35.455 7.29614 33.5066C7.82716 31.5581 16.9903 26.3198 18.9386 26.8508C20.8871 27.3817 26.1255 36.5449 25.5945 38.4934C25.0635 40.4418 15.9003 45.6802 13.9519 45.1492Z" fill="black"/>
</g>
<g clip-path="url(#clip1_6_24)">
<path d="M37.8309 25.9792C37.6112 25.1339 36.9492 24.4722 36.1042 24.2525V22.3406C40.621 22.2022 43.9583 20.5306 43.9583 18.3391V4.01499C43.9583 1.72636 40.3221 0 35.5 0C30.6779 0 27.0417 1.72636 27.0417 4.01499V18.3392C27.0417 20.5307 30.379 22.2023 34.8958 22.3407V24.2525C34.0507 24.4722 33.3888 25.134 33.1691 25.9792H21V27.1876H33.1691C33.4393 28.227 34.3773 29.0001 35.5 29.0001C36.6227 29.0001 37.5607 28.227 37.8309 27.1876H50V25.9792L37.8309 25.9792ZM35.5 1.20833C39.7725 1.20833 42.75 2.68748 42.75 4.01499C42.75 5.34251 39.7725 6.82107 35.5 6.82107C31.2275 6.82107 28.25 5.34251 28.25 4.01499C28.25 2.68748 31.2275 1.20833 35.5 1.20833ZM28.25 6.13406C29.7028 7.28699 32.3432 8.0294 35.5 8.0294C38.6568 8.0294 41.2972 7.28699 42.75 6.13406V8.78992C42.75 10.1174 39.7725 11.596 35.5 11.596C31.2275 11.596 28.25 10.1174 28.25 8.78992V6.13406ZM28.25 10.909C29.7028 12.0619 32.3432 12.8043 35.5 12.8043C38.6568 12.8043 41.2972 12.0619 42.75 10.909V13.5642C42.75 14.8918 39.7725 16.3709 35.5 16.3709C31.2275 16.3709 28.25 14.8918 28.25 13.5642V10.909ZM28.25 18.3392V15.6835C29.7028 16.8366 32.3432 17.5792 35.5 17.5792C38.6568 17.5792 41.2972 16.8366 42.75 15.6835V18.3392C42.75 19.6667 39.7725 21.1458 35.5 21.1458C31.2275 21.1458 28.25 19.6667 28.25 18.3392ZM35.5 27.7917C34.8336 27.7917 34.2917 27.2495 34.2917 26.5833C34.2917 25.9172 34.8336 25.375 35.5 25.375C36.1664 25.375 36.7083 25.9172 36.7083 26.5833C36.7083 27.2495 36.1664 27.7917 35.5 27.7917Z" fill="#200052"/>
</g>
<path d="M46.2017 26.8182H48.8295L55.0085 41.9105H55.2216L61.4006 26.8182H64.0284V45H61.9688V31.1861H61.7912L56.1094 45H54.1207L48.4389 31.1861H48.2614V45H46.2017V26.8182ZM73.6986 45.2841C72.4675 45.2841 71.3874 44.9911 70.4582 44.4052C69.5349 43.8192 68.8128 42.9995 68.292 41.946C67.7771 40.8925 67.5196 39.6615 67.5196 38.2528C67.5196 36.8324 67.7771 35.5924 68.292 34.533C68.8128 33.4736 69.5349 32.6509 70.4582 32.065C71.3874 31.479 72.4675 31.1861 73.6986 31.1861C74.9297 31.1861 76.0068 31.479 76.9301 32.065C77.8593 32.6509 78.5814 33.4736 79.0963 34.533C79.6172 35.5924 79.8776 36.8324 79.8776 38.2528C79.8776 39.6615 79.6172 40.8925 79.0963 41.946C78.5814 42.9995 77.8593 43.8192 76.9301 44.4052C76.0068 44.9911 74.9297 45.2841 73.6986 45.2841ZM73.6986 43.402C74.6337 43.402 75.4031 43.1623 76.0068 42.6829C76.6105 42.2035 77.0574 41.5732 77.3474 40.7919C77.6374 40.0107 77.7824 39.1643 77.7824 38.2528C77.7824 37.3414 77.6374 36.4921 77.3474 35.7049C77.0574 34.9177 76.6105 34.2815 76.0068 33.7962C75.4031 33.3108 74.6337 33.0682 73.6986 33.0682C72.7635 33.0682 71.9941 33.3108 71.3904 33.7962C70.7867 34.2815 70.3398 34.9177 70.0498 35.7049C69.7598 36.4921 69.6148 37.3414 69.6148 38.2528C69.6148 39.1643 69.7598 40.0107 70.0498 40.7919C70.3398 41.5732 70.7867 42.2035 71.3904 42.6829C71.9941 43.1623 72.7635 43.402 73.6986 43.402ZM85.171 36.7969V45H83.0758V31.3636H85.1V33.4943H85.2775C85.5971 32.8018 86.0824 32.2455 86.7335 31.8253C87.3845 31.3991 88.225 31.1861 89.2548 31.1861C90.1781 31.1861 90.986 31.3755 91.6784 31.7543C92.3709 32.1271 92.9095 32.6953 93.2942 33.4588C93.6789 34.2164 93.8713 35.1752 93.8713 36.3352V45H91.7761V36.4773C91.7761 35.406 91.4979 34.5715 90.9416 33.9737C90.3852 33.37 89.6217 33.0682 88.6511 33.0682C87.9823 33.0682 87.3845 33.2132 86.8578 33.5032C86.3369 33.7932 85.9256 34.2164 85.6238 34.7727C85.3219 35.3291 85.171 36.0038 85.171 36.7969Z" fill="#200052"/>
<path d="M103.453 45.2663C102.074 45.2663 100.881 44.9734 99.8749 44.3874C98.8747 43.7956 98.1023 42.9729 97.5578 41.9194C97.0133 40.86 96.741 39.6319 96.741 38.2351C96.741 36.8265 97.0133 35.5954 97.5578 34.5419C98.1023 33.4825 98.8747 32.6598 99.8749 32.0739C100.881 31.482 102.074 31.1861 103.453 31.1861C104.832 31.1861 106.021 31.482 107.022 32.0739C108.028 32.6598 108.803 33.4825 109.348 34.5419C109.892 35.5954 110.164 36.8265 110.164 38.2351C110.164 39.6319 109.892 40.86 109.348 41.9194C108.803 42.9729 108.028 43.7956 107.022 44.3874C106.021 44.9734 104.832 45.2663 103.453 45.2663ZM103.47 42.3366C104.098 42.3366 104.622 42.1591 105.042 41.804C105.462 41.4429 105.779 40.9517 105.992 40.3303C106.211 39.7088 106.32 39.0015 106.32 38.2085C106.32 37.4154 106.211 36.7081 105.992 36.0866C105.779 35.4652 105.462 34.974 105.042 34.6129C104.622 34.2519 104.098 34.0714 103.47 34.0714C102.837 34.0714 102.304 34.2519 101.872 34.6129C101.446 34.974 101.124 35.4652 100.905 36.0866C100.692 36.7081 100.585 37.4154 100.585 38.2085C100.585 39.0015 100.692 39.7088 100.905 40.3303C101.124 40.9517 101.446 41.4429 101.872 41.804C102.304 42.1591 102.837 42.3366 103.47 42.3366ZM112.623 45V31.3636H116.29V33.7429H116.432C116.681 32.8965 117.098 32.2573 117.684 31.8253C118.27 31.3873 118.945 31.1683 119.708 31.1683C119.897 31.1683 120.102 31.1802 120.321 31.2038C120.54 31.2275 120.732 31.2601 120.898 31.3015V34.6573C120.72 34.604 120.474 34.5567 120.161 34.5153C119.847 34.4738 119.56 34.4531 119.3 34.4531C118.743 34.4531 118.246 34.5745 117.808 34.8171C117.376 35.0539 117.033 35.3853 116.778 35.8114C116.53 36.2376 116.405 36.7288 116.405 37.2852V45H112.623ZM126.351 45.2575C125.481 45.2575 124.705 45.1065 124.025 44.8047C123.344 44.4969 122.806 44.0442 122.409 43.4464C122.018 42.8427 121.823 42.091 121.823 41.1914C121.823 40.4338 121.962 39.7976 122.24 39.2827C122.519 38.7678 122.897 38.3535 123.377 38.0398C123.856 37.7261 124.401 37.4893 125.01 37.3295C125.626 37.1697 126.271 37.0573 126.946 36.9922C127.739 36.9093 128.378 36.8324 128.863 36.7614C129.349 36.6844 129.701 36.572 129.92 36.424C130.139 36.276 130.248 36.0571 130.248 35.767V35.7138C130.248 35.1515 130.071 34.7165 129.716 34.4087C129.366 34.101 128.869 33.9471 128.224 33.9471C127.543 33.9471 127.002 34.098 126.599 34.3999C126.197 34.6958 125.931 35.0687 125.8 35.5185L122.303 35.2344C122.48 34.4058 122.829 33.6896 123.35 33.0859C123.871 32.4763 124.543 32.0088 125.365 31.6832C126.194 31.3518 127.153 31.1861 128.242 31.1861C128.999 31.1861 129.724 31.2749 130.417 31.4524C131.115 31.63 131.734 31.9052 132.272 32.2781C132.817 32.6509 133.246 33.1303 133.56 33.7163C133.873 34.2963 134.03 34.9917 134.03 35.8026V45H130.444V43.109H130.337C130.118 43.5352 129.825 43.911 129.458 44.2365C129.091 44.5561 128.65 44.8076 128.135 44.9911C127.62 45.1687 127.026 45.2575 126.351 45.2575ZM127.434 42.6474C127.99 42.6474 128.482 42.5379 128.908 42.3189C129.334 42.094 129.668 41.7921 129.911 41.4134C130.154 41.0346 130.275 40.6055 130.275 40.1261V38.679C130.156 38.7559 129.994 38.8269 129.787 38.892C129.585 38.9512 129.357 39.0075 129.103 39.0607C128.848 39.1081 128.594 39.1525 128.339 39.1939C128.085 39.2294 127.854 39.262 127.647 39.2915C127.203 39.3567 126.815 39.4602 126.484 39.6023C126.153 39.7443 125.895 39.9367 125.712 40.1793C125.528 40.4161 125.436 40.712 125.436 41.0671C125.436 41.582 125.623 41.9756 125.996 42.2479C126.375 42.5142 126.854 42.6474 127.434 42.6474ZM143.126 45.2663C141.729 45.2663 140.527 44.9704 139.521 44.3786C138.521 43.7808 137.751 42.9522 137.213 41.8928C136.68 40.8333 136.414 39.6141 136.414 38.2351C136.414 36.8383 136.683 35.6132 137.222 34.5597C137.766 33.5002 138.539 32.6746 139.539 32.0827C140.539 31.485 141.729 31.1861 143.108 31.1861C144.297 31.1861 145.339 31.4021 146.233 31.8342C147.126 32.2662 147.834 32.8729 148.355 33.6541C148.875 34.4354 149.162 35.3527 149.216 36.4062H145.647C145.546 35.7256 145.28 35.1781 144.848 34.7638C144.422 34.3436 143.862 34.1335 143.17 34.1335C142.584 34.1335 142.072 34.2933 141.634 34.6129C141.202 34.9266 140.865 35.3853 140.622 35.989C140.379 36.5927 140.258 37.3236 140.258 38.1818C140.258 39.0518 140.376 39.7917 140.613 40.4013C140.856 41.0109 141.196 41.4755 141.634 41.7951C142.072 42.1147 142.584 42.2745 143.17 42.2745C143.602 42.2745 143.99 42.1857 144.333 42.0082C144.682 41.8306 144.969 41.5732 145.194 41.2358C145.425 40.8925 145.576 40.4812 145.647 40.0018H149.216C149.157 41.0434 148.872 41.9608 148.363 42.7539C147.86 43.5411 147.165 44.1566 146.277 44.6005C145.389 45.0444 144.339 45.2663 143.126 45.2663ZM155.419 26.8182V45H151.637V26.8182H155.419ZM164.663 45.2663C163.26 45.2663 162.053 44.9822 161.041 44.4141C160.035 43.84 159.26 43.0291 158.715 41.9815C158.171 40.928 157.898 39.6822 157.898 38.244C157.898 36.8413 158.171 35.6102 158.715 34.5508C159.26 33.4914 160.026 32.6657 161.014 32.0739C162.009 31.482 163.175 31.1861 164.512 31.1861C165.412 31.1861 166.249 31.3311 167.025 31.6211C167.806 31.9052 168.487 32.3343 169.067 32.9084C169.653 33.4825 170.108 34.2045 170.434 35.0746C170.759 35.9387 170.922 36.9508 170.922 38.1108V39.1495H159.407V36.8058H167.362C167.362 36.2612 167.244 35.7789 167.007 35.3587C166.77 34.9384 166.442 34.61 166.021 34.3732C165.607 34.1306 165.125 34.0092 164.574 34.0092C164 34.0092 163.491 34.1424 163.047 34.4087C162.609 34.6692 162.266 35.0213 162.018 35.4652C161.769 35.9032 161.642 36.3915 161.636 36.93V39.1584C161.636 39.8331 161.76 40.4161 162.009 40.9073C162.263 41.3986 162.621 41.7773 163.083 42.0437C163.545 42.31 164.092 42.4432 164.725 42.4432C165.146 42.4432 165.53 42.384 165.879 42.2656C166.229 42.1473 166.528 41.9697 166.776 41.733C167.025 41.4962 167.214 41.2062 167.344 40.8629L170.842 41.0938C170.665 41.9342 170.301 42.6681 169.75 43.2955C169.206 43.9169 168.501 44.4022 167.637 44.7514C166.779 45.0947 165.788 45.2663 164.663 45.2663Z" fill="#836EF9"/>
<defs>
<clipPath id="clip0_6_24">
<rect width="33" height="32" fill="white" transform="translate(0 20)"/>
</clipPath>
<clipPath id="clip1_6_24">
<rect width="29" height="29" fill="white" transform="translate(20)"/>
</clipPath>
</defs>
</svg>
